<svg xmlns="http://www.w3.org/2000/svg" width="100%" height="100%" viewBox="0 0 1200 320"><defs><linearGradient id="bg-grad" x1="0%" x2="100%" y1="0%" y2="100%"><stop offset="0%" stop-color="#0f172a"/><stop offset="50%" stop-color="#1e1b4b"/><stop offset="100%" stop-color="#311042"/></linearGradient><linearGradient id="accent-grad" x1="0%" x2="100%" y1="0%" y2="0%"><stop offset="0%" stop-color="#38bdf8"/><stop offset="50%" stop-color="#818cf8"/><stop offset="100%" stop-color="#c084fc"/></linearGradient><linearGradient id="glow-grad" x1="0%" x2="100%" y1="0%" y2="100%"><stop offset="0%" stop-color="#38bdf8" stop-opacity=".15"/><stop offset="100%" stop-color="#c084fc" stop-opacity=".05"/></linearGradient><filter id="glow" width="140%" height="140%" x="-20%" y="-20%"><feGaussianBlur result="blur" stdDeviation="8"/><feComposite in="SourceGraphic" in2="blur" operator="over"/></filter><style>@keyframes scanline{0%{transform:translateY(0);opacity:.3}50%{transform:translateY(220px);opacity:.8}}@keyframes pulse-box{0%{stroke-opacity:.4;stroke-width:1.5px}50%{stroke-opacity:1;stroke-width:2.5px}}@keyframes float-particle{0%{transform:translateY(0)}50%{transform:translateY(-10px)}}.subtitle,.tag,.title{font-family:system-ui,-apple-system,&apos;Segoe UI&apos;,Roboto,Helvetica,Arial,sans-serif}.title{font-weight:800;font-size:52px;fill:#fff}.subtitle{font-weight:500;font-size:22px;fill:#cbd5e1}.tag{font-weight:600;font-size:14px;fill:#38bdf8;letter-spacing:1.5px}.scanner{animation:scanline 6s ease-in-out infinite}.bbox{animation:pulse-box 3s ease-in-out infinite}</style></defs><rect width="1200" height="320" fill="url(#bg-grad)" rx="16"/><g stroke="#fff" stroke-opacity=".04" stroke-width="1"><path d="M0 40 H1200 M0 80 H1200 M0 120 H1200 M0 160 H1200 M0 200 H1200 M0 240 H1200 M0 280 H1200"/><path d="M100 0 V320 M200 0 V320 M300 0 V320 M400 0 V320 M500 0 V320 M600 0 V320 M700 0 V320 M800 0 V320 M900 0 V320 M1000 0 V320 M1100 0 V320"/></g><rect width="380" height="240" x="750" y="40" fill="url(#glow-grad)" stroke="#818cf8" stroke-opacity=".2" rx="12"/><g fill="none" stroke="#38bdf8" stroke-width="2" class="bbox"><rect width="160" height="120" x="780" y="70" stroke-dasharray="6 4" rx="6"/><path stroke="#38bdf8" stroke-width="3" d="M780 85 V70 H795 M925 70 H940 V85 M940 175 V190 H925 M795 190 H780 V175"/><rect width="110" height="20" x="780" y="50" fill="#38bdf8" rx="3"/><text x="786" y="64" fill="#0f172a" font-family="sans-serif" font-size="11" font-weight="bold">OBJECT: 99.4%</text><rect width="140" height="130" x="960" y="120" rx="6"/><path stroke="#c084fc" stroke-width="3" d="M960 135 V120 H975 M1085 120 H1100 V135 M1100 235 V250 H1085 M975 250 H960 V235"/><rect width="100" height="20" x="960" y="100" fill="#c084fc" rx="3"/><text x="966" y="114" fill="#0f172a" font-family="sans-serif" font-size="11" font-weight="bold">MODEL: YOLO</text></g><line x1="750" x2="1130" y1="50" y2="50" stroke="#38bdf8" stroke-width="2" class="scanner" filter="url(#glow)"/><g transform="translate(60, 0)"><text x="0" y="90" class="tag">CURATED AWESOME LIST</text><text x="0" y="150" class="title">Awesome Custom Computer Vision</text><rect width="620" height="4" x="0" y="170" fill="url(#accent-grad)" rx="2"/><text x="0" y="215" class="subtitle">SaaS Platforms, Edge AI, AutoML &amp; Open-Source Frameworks</text><g transform="translate(0, 245)"><rect width="130" height="28" x="0" y="0" fill="#1e293b" stroke="#38bdf8" stroke-opacity=".5" rx="14"/><text x="16" y="18" fill="#38bdf8" font-family="sans-serif" font-size="12" font-weight="600">☁️ SaaS Tools</text><rect width="140" height="28" x="142" y="0" fill="#1e293b" stroke="#818cf8" stroke-opacity=".5" rx="14"/><text x="158" y="18" fill="#818cf8" font-family="sans-serif" font-size="12" font-weight="600">🔓 Open-Source</text><rect width="140" height="28" x="294" y="0" fill="#1e293b" stroke="#c084fc" stroke-opacity=".5" rx="14"/><text x="310" y="18" fill="#c084fc" font-family="sans-serif" font-size="12" font-weight="600">⚡ Edge AI &amp; YOLO</text></g></g></svg>